<?xml version="1.0" encoding="UTF-8"?>
<svg width="387px" height="180px" viewBox="0 0 387 180" version="1.1" xmlns="http://www.w3.org/2000/svg" xmlns:xlink="http://www.w3.org/1999/xlink">
    <title>Artboard</title>
    <g id="Artboard" stroke="none" stroke-width="1" fill="none" fill-rule="evenodd">
        <rect id="Rectangle" fill="#FFFFFF" x="0" y="0" width="387" height="180"></rect>
        <path d="M285.533,124.8293 C285.457,123.9623 284.777,123.3703 283.856,123.3703 C282.829,123.3703 281.862,124.4473 281.964,125.8023 C282.031,126.6943 282.557,127.4293 283.59,127.4293 C284.777,127.4293 285.642,126.0763 285.533,124.8293 M315.365,124.8273 C315.289,123.9613 314.609,123.3683 313.688,123.3683 C312.661,123.3683 311.694,124.4463 311.796,125.8003 C311.863,126.6923 312.389,127.4273 313.422,127.4273 C314.609,127.4273 315.474,126.0743 315.365,124.8273 M349.827,140.0503 C349.088,141.2403 346.948,142.6393 345.437,142.1913 C343.927,141.7443 343.141,140.0623 342.934,139.5353 C342.726,139.0083 342.449,139.3053 342.23,139.6633 C341.493,140.8693 340.626,141.5423 339.656,142.0333 C338.685,142.5243 337.484,142.4673 336.997,142.2873 C336.371,142.0553 336.01,141.6563 335.732,141.1283 C335.619,140.9143 335.407,140.4363 335.34,139.9353 C335.299,139.6233 335.122,139.3633 334.804,139.6763 C333.556,140.9083 332.068,142.2053 329.15,142.1873 C328.279,142.1873 327.362,141.8283 326.606,140.9613 C325.7,141.6543 324.557,142.2673 323.148,142.3283 C321.389,142.4053 319.924,140.9213 319.439,139.6063 C319.158,138.8453 318.512,140.2123 317.887,140.8873 C317.262,141.5613 316.37,142.3013 315.144,142.3013 C312.547,142.3013 312.303,138.4543 311.663,139.1103 C310.666,140.1313 307.722,142.5453 306.135,142.3523 C303.93,142.0833 305.489,136.2283 303.498,136.2283 C301.929,136.2283 298.749,142.4453 297.402,142.3063 C296.861,142.2493 296.634,141.8453 296.691,141.3043 C296.708,141.1313 297.06,137.2743 296.597,136.5753 C295.408,134.7773 290.256,142.4723 288.683,142.3093 C288.142,142.2523 287.914,141.8483 287.971,141.3073 C287.987,141.1563 288.025,140.9553 288.079,140.7203 C287.072,141.6083 286.245,142.3023 285.379,142.3023 C282.781,142.3023 282.562,138.5363 281.897,139.1673 C281.433,139.6073 280.844,140.3323 278.981,141.1323 C276.298,142.2843 271.485,142.8883 270.34,141.7473 C267.69,139.1053 268.886,129.6833 269.825,124.7913 C270.247,122.5943 274.305,122.7883 273.538,124.9703 C271.758,130.0393 272.09,138.2613 272.935,139.3223 C273.779,140.3833 277.525,139.7113 279.135,138.9433 C280.746,138.1753 281.052,137.4523 281.246,136.7723 C281.301,134.7663 281.841,131.9043 283.465,131.9043 C284.602,131.9043 285.144,134.4453 284.329,136.6663 C284.329,139.3153 285.192,139.9233 286.326,139.8773 C287.46,139.8303 288.478,138.7333 288.865,137.9153 C288.898,137.8043 288.927,137.7003 288.953,137.6073 C289.391,135.9613 289.793,134.1573 290.017,133.5823 C290.24,133.0023 290.841,132.5883 291.322,132.6333 C291.566,132.6563 291.639,133.1093 291.714,133.4823 C291.987,134.8213 292.251,136.1853 292.682,136.1853 C293.442,136.1853 295.688,131.4063 297.148,131.4063 C298.671,131.4063 298.666,135.4533 299.398,136.0643 C300.13,136.6763 303.409,131.2473 304.868,131.2473 C306.777,131.2473 307.062,138.1693 307.336,138.9523 C307.61,139.7343 308.316,139.7273 309.092,139.2843 C310.647,138.3983 310.817,137.4513 311.012,136.7703 C311.066,134.7643 311.607,131.9023 313.23,131.9023 C314.368,131.9023 314.91,134.4433 314.095,136.6643 C314.095,139.3143 315.251,139.9093 316.092,139.8753 C316.932,139.8413 317.544,139.2123 318.037,138.4143 C318.539,137.6023 318.812,136.8593 318.957,136.2173 C319.235,134.9963 319.371,132.3913 319.994,129.5973 C319.443,129.5593 315.584,129.6623 316.892,127.8633 C317.209,127.4263 318.783,127.4853 320.228,127.4423 C320.465,126.6523 320.946,124.6343 321.518,123.5223 C321.722,123.1253 323.278,123.4043 323.392,123.9543 C323.508,124.5123 323.128,126.8943 323.051,127.4853 C324.198,127.5283 325.284,127.2863 326.374,127.6553 C327.385,127.9973 327.382,129.2663 326.119,129.4813 C324.988,129.6743 323.773,129.5243 322.625,129.5673 C322.21,131.4043 321.664,134.5673 321.885,136.5883 C322.107,138.6093 323.009,139.6423 323.651,139.9183 C324.41,140.2463 325.341,140.0823 326.026,139.6423 C325.94,139.2983 325.793,138.7563 325.793,138.1813 C325.793,134.3933 328.229,131.2003 330.339,131.2003 C332.017,131.2003 332.991,133.4193 332.991,134.8833 C332.991,136.6123 331.528,138.0223 329.366,139.3743 C329.746,139.7513 330.446,140.0243 331.044,140.0243 C333.114,140.0243 334.734,138.1173 335.556,136.0593 C336.378,134.0013 337.632,131.6923 339.51,131.3563 C340.737,131.1373 341.341,132.3633 341.585,131.8823 C341.713,130.0133 341.992,125.4663 342.332,123.6393 C342.533,122.9663 344.711,123.6013 344.673,124.2883 C344.443,128.4173 344.426,133.2023 344.853,135.5883 C345.281,137.9753 346.111,140.4583 348.144,139.5243 C348.737,139.2513 349.19,138.7383 349.446,138.4813 C349.749,138.1773 350.274,139.3293 349.827,140.0503 M338.036,137.3983 C338.229,136.3903 339.013,134.3743 340.004,133.6873 C340.534,133.3203 341.414,133.5403 341.695,134.0913 C341.975,134.6413 342.011,136.3633 341.59,137.6173 C341.169,138.8713 340.373,139.9823 339.109,140.1563 C337.844,140.3303 337.842,138.4063 338.036,137.3983 M330.611,135.4753 C330.611,134.5573 330.122,133.8003 329.53,133.8003 C329.039,133.8003 327.906,134.3383 327.906,136.0713 C327.906,137.4283 328.388,138.0723 328.609,138.3473 C330.176,137.8603 330.611,136.5583 330.611,135.4753 M83.017,137.2403 C83.21,136.2323 83.994,134.2163 84.985,133.5293 C85.515,133.1623 86.395,133.3833 86.676,133.9333 C86.956,134.4833 86.992,136.2053 86.571,137.4593 C86.15,138.7133 85.354,139.8243 84.09,139.9983 C82.825,140.1723 82.823,138.2483 83.017,137.2403 M129.178,137.1633 C129.443,136.1553 129.907,135.0093 130.846,134.3203 C131.272,134.0073 132.293,134.0963 132.552,134.9043 C132.811,135.7123 132.684,136.9623 132.442,137.7373 C132.2,138.5113 131.522,139.7723 130.282,139.9273 C129.042,140.0823 128.913,138.1713 129.178,137.1633 M155.399,138.6193 C155.016,139.6793 153.342,142.2213 151.99,142.2213 C149.714,142.2213 149.23,136.2163 147.226,136.2163 C145.656,136.2163 140.699,142.3153 139.353,142.1763 C138.811,142.1193 138.584,141.7153 138.641,141.1743 L138.642,141.1633 C137.705,141.7663 136.776,142.4123 135.697,142.0453 C134.617,141.6793 133.964,140.2423 133.767,139.7153 C133.57,139.1883 133.361,139.1773 133.156,139.5053 C132.419,140.6853 131.605,141.3313 130.656,141.8023 C129.708,142.2723 128.564,142.1573 128.101,141.9773 C127.507,141.7453 127.085,141.2523 126.814,140.7283 C126.741,140.5853 126.68,140.4423 126.633,140.2953 C126.073,141.0683 125.543,141.9973 123.71,142.2073 C121.877,142.4173 120.378,140.6023 119.923,139.2763 C119.752,138.7783 119.571,138.7493 119.415,138.9153 C118.808,139.5633 118.142,140.2213 117.098,140.9783 C116.053,141.7363 115.028,142.1323 113.731,142.2643 C112.434,142.3953 111.209,142.0123 110.667,141.3423 C110.125,140.6713 110.171,140.0813 110.676,139.4333 C111.18,138.7853 111.655,139.8953 113.144,139.5593 C114.634,139.2223 114.589,136.2353 113.27,134.9683 C112.786,134.5033 112.462,134.5463 112.151,135.0053 C110.706,137.6393 109.271,139.5283 106.935,141.4823 C106.082,142.0213 105.261,142.2343 104.6,141.9443 C103.155,140.7543 103.755,137.4063 102.884,137.3863 C102.012,137.3663 99.484,141.4963 97.874,141.9463 C96.265,142.3953 95.602,141.6733 95.256,141.1563 C94.91,140.6393 94.821,140.0993 94.411,140.4013 C93.596,141.0033 91.806,142.4813 90.418,142.0333 C89.031,141.5863 88.122,139.9043 87.915,139.3773 C87.707,138.8503 87.43,139.1483 87.211,139.5063 C86.474,140.7113 85.607,141.3843 84.637,141.8753 C83.666,142.3663 82.465,142.3093 81.978,142.1293 C81.352,141.8983 80.908,141.4053 80.623,140.8803 C80.513,140.6783 80.477,139.7943 80.424,139.5813 C79.812,140.8193 77.919,142.2333 77.197,142.2333 C74.922,142.2333 74.438,136.2283 72.433,136.2283 C70.864,136.2283 65.907,142.3273 64.56,142.1883 C64.019,142.1313 63.791,141.7273 63.848,141.1863 C63.864,141.0353 63.902,140.8333 63.956,140.5993 C62.949,141.4873 62.122,142.1813 61.256,142.1813 C58.659,142.1813 58.439,138.3593 57.774,138.9903 C57.31,139.4313 56.255,140.9283 55.279,141.6093 C54.304,142.2893 52.95,142.3453 51.95,142.1833 C50.95,142.0203 49.802,141.4653 49.144,139.7293 C48.486,137.9923 48.188,134.0063 48.223,133.4483 C48.257,132.8903 41.11,133.9443 41.168,134.7093 C41.226,135.4733 41.107,139.2143 40.652,141.4913 C40.41,142.7063 37.131,142.8373 37.342,141.2173 C37.787,135.4503 38.557,130.0153 37.039,124.5523 C36.592,122.9423 40.118,122.3963 40.36,123.8223 C40.745,126.0833 40.857,128.9563 41.043,131.2753 C41.717,131.6043 48.112,130.7583 48.15,130.4763 C48.386,128.7073 48.406,126.8673 48.828,124.6703 C49.25,122.4723 53.2,122.6663 52.433,124.8493 C50.652,129.9183 51.606,137.1573 52.087,138.5033 C52.568,139.8493 54.035,140.1853 55.013,139.5113 C55.99,138.8383 56.929,137.3313 57.124,136.6513 C57.178,134.6453 57.718,131.7833 59.342,131.7833 C60.479,131.7833 61.021,134.3243 60.207,136.5453 C60.207,139.1943 61.07,139.8023 62.203,139.7553 C63.337,139.7093 64.355,138.6123 64.743,137.7943 C64.775,137.6833 64.805,137.5793 64.83,137.4863 C65.268,135.8403 65.67,134.0363 65.894,133.4613 C66.117,132.8813 66.718,132.4673 67.2,132.5113 C67.443,132.5343 67.516,132.9873 67.592,133.3613 C67.864,134.6993 68.246,136.0643 68.677,136.0643 C69.437,136.0643 71.948,131.2473 73.407,131.2473 C75.195,131.2473 75.592,139.0973 78.025,139.0973 C78.824,139.0973 80.165,138.0293 80.392,136.8593 C80.779,134.8663 82.373,131.5773 84.491,131.1993 C85.717,130.9793 86.322,132.2053 86.566,131.7253 C86.694,129.8553 86.973,125.3083 87.313,123.4813 C87.514,122.8083 89.692,123.4443 89.654,124.1303 C89.424,128.2593 89.407,133.0443 89.834,135.4313 C90.262,137.8173 91.391,140.9293 93.125,139.5143 C95.14,137.8703 95.166,132.1033 95.844,131.2703 C96.24,130.9703 97.55,131.4323 97.572,131.8903 C97.861,133.1503 96.898,136.3333 96.885,137.3283 C96.869,138.6023 98.038,138.6543 99.852,137.0333 C100.815,136.1713 101.927,134.5253 102.626,133.1533 C103.242,131.9413 103.615,130.9903 104.117,131.2393 C104.62,131.4883 104.795,131.7153 104.918,132.1843 C105.546,134.5773 104.111,139.3093 106.672,138.8383 C108.594,138.4853 110.785,134.1203 111.054,133.3333 C111.323,132.5463 110.503,131.7713 111.299,131.2973 C112.095,130.8233 113.154,131.2683 113.848,131.7983 C114.674,132.4293 115.562,133.4593 116.104,134.4253 C116.646,135.3903 116.931,136.8223 116.964,138.1193 C116.986,138.9413 119.138,137.7753 119.52,136.0963 C119.798,134.8743 119.933,132.2703 120.556,129.4763 C120.006,129.4373 116.146,129.5413 117.454,127.7423 C117.772,127.3053 119.346,127.3643 120.79,127.3213 C121.027,126.5313 121.508,124.5133 122.08,123.4013 C122.285,123.0043 123.841,123.2823 123.955,123.8333 C124.071,124.3913 123.691,126.7723 123.613,127.3643 C124.76,127.4063 125.847,127.1653 126.936,127.5343 C127.948,127.8763 127.944,129.1453 126.681,129.3603 C125.551,129.5533 124.335,129.4033 123.188,129.4453 C122.773,131.2833 122.226,134.4463 122.448,136.4673 C122.67,138.4883 123.685,139.4573 124.213,139.5743 C124.741,139.6913 125.169,139.3903 125.708,138.8393 L125.708,138.8393 L125.717,138.8303 C125.777,138.7693 125.836,138.7033 125.895,138.6353 C126.318,138.1023 126.62,137.2263 126.723,136.8053 C127.205,134.8393 128.686,131.8483 130.721,131.6433 C132.005,131.5133 132.643,133.0793 132.974,132.8223 C133.235,132.6203 133.097,131.8863 133.302,131.6323 C133.601,131.2613 135.236,131.5833 135.269,132.4193 C135.313,133.5203 135.413,134.5903 135.586,135.7813 C135.759,136.9723 136.097,140.2403 138.125,139.5723 C138.412,139.4773 139.054,138.9553 139.286,138.6283 C139.417,138.1863 139.539,137.7763 139.623,137.4743 C140.061,135.8283 140.462,134.0243 140.686,133.4493 C140.909,132.8693 141.511,132.4553 141.992,132.5003 C142.236,132.5233 142.308,132.9763 142.384,133.3493 C142.656,134.6883 143.039,136.0523 143.469,136.0523 C144.229,136.0523 146.74,131.2353 148.2,131.2353 C149.988,131.2353 150.203,138.8133 152.636,138.8133 C153.519,138.8133 154.396,137.4463 154.748,136.9733 C155.101,136.5003 155.781,137.5593 155.399,138.6193 M61.477,124.7083 C61.4,123.8413 60.721,123.2483 59.8,123.2483 C58.773,123.2483 57.806,124.3263 57.908,125.6813 C57.974,126.5733 58.5,127.3083 59.534,127.3083 C60.721,127.3083 61.585,125.9553 61.477,124.7083" id="Fill-1" fill="#1F36C7"></path>
        <path d="M257.072935,131.124447 C258.834822,131.135373 259.984264,132.107599 259.976284,133.345779 C259.97095,134.210257 259.306445,134.959493 258.371221,134.953998 C256.387776,134.941674 256.890977,133.489498 256.066533,133.484502 C254.122526,133.472325 252.628123,136.677141 251.156202,139.898654 L250.917642,140.420703 C250.798393,140.681294 250.67914,140.940859 250.559655,141.19769 C249.888322,142.643871 249.498461,142.910326 248.948661,142.906862 C247.565199,142.898335 247.263927,139.18496 246.720443,137.568082 C245.548298,139.979494 243.324347,142.872189 239.684332,142.849541 C237.589937,142.836884 235.509538,141.747419 235.530544,138.469364 C235.55443,134.813277 237.991064,132.190033 240.471736,132.205354 C242.347304,132.216845 243.602576,134.109837 243.59387,135.452434 C243.570485,139.058394 238.715482,139.132336 238.710532,139.886568 C238.706094,140.586011 239.972973,140.864456 240.688003,140.868952 C243.778559,140.887604 245.876369,136.832501 246.577402,134.071867 C246.698423,133.592749 247.138127,132.569731 248.021118,132.57506 C249.015402,132.581221 248.534732,138.656381 249.913756,138.665374 C250.741784,138.670204 251.889861,131.092408 257.072935,131.124447 Z M211.839626,126.743706 C212.204054,133.242861 209.968154,135.941211 208.842438,138.274186 C209.024226,139.182629 210.591694,140.736058 212.079619,140.745384 C212.629078,140.748881 213.295461,140.483759 213.463422,140.266932 C213.355203,139.89273 213.24579,139.407616 213.250228,138.706841 C213.274637,134.941508 215.776816,131.782524 217.926857,131.796014 C219.635659,131.806339 220.614238,134.017577 220.60485,135.472585 C220.593414,137.190716 219.094735,138.583606 216.882561,139.914546 C217.267473,140.290413 217.979431,140.567026 218.58812,140.571023 C221.732444,140.590174 223.402498,136.888123 224.642237,133.505152 C224.866356,132.859833 225.260314,131.949725 226.030649,131.954554 C227.353685,131.962714 227.851936,140.464774 230.050796,140.478097 C230.99114,140.484092 231.773594,138.604423 231.782982,137.155744 C231.78998,136.078602 231.405069,135.96819 231.41514,134.407933 C231.426235,132.689136 232.373577,131.243787 233.644382,131.251781 C234.4154,131.256277 234.688507,132.007845 234.68296,132.919952 C234.660343,136.363541 232.079987,142.749454 228.336191,142.7267 C225.519425,142.708986 225.769831,137.976923 224.778961,137.970927 C223.671339,137.9641 222.097214,142.741127 216.644616,142.707987 C215.758552,142.702325 214.82606,142.266838 214.061528,141.39903 C212.734395,142.254015 211.626772,142.623054 210.358699,142.615727 C208.320802,142.60307 207.450271,140.55337 206.625315,140.548041 C205.631032,140.542046 204.518118,142.633046 201.207027,142.612729 C198.561466,142.596409 198.142416,139.154818 197.207192,139.148989 C196.378481,139.143826 195.0889,142.574926 193.711924,142.566599 C192.585706,142.559643 191.899552,141.14734 191.25756,139.695055 L191.032164,139.183047 C190.432558,137.825124 189.830814,136.574074 188.896863,136.568212 C187.298841,136.558386 182.208282,142.589581 180.837964,142.442032 C180.28714,142.382912 180.057558,141.979234 180.11952,141.442328 C180.201964,140.698588 180.871761,138.710338 181.143674,137.769754 C181.600276,136.136889 182.020862,134.347314 182.253174,133.776769 C182.483438,133.201228 183.098614,132.793719 183.589354,132.841181 C183.837029,132.865662 183.908208,133.316469 183.98263,133.688839 C184.252153,135.020611 184.632626,136.378363 185.071306,136.381527 C185.845737,136.386357 188.434287,131.614159 189.92153,131.623318 C191.743841,131.634476 191.913168,139.167474 194.391963,139.182629 C195.220674,139.187625 195.83585,138.224725 196.392307,137.041834 C196.461949,135.049089 197.030526,132.208185 198.684364,132.21851 C199.843024,132.225671 200.378657,134.755156 199.534924,136.957402 C199.517855,139.589804 201.275645,140.246614 202.435841,140.253442 C203.261822,140.258605 204.684543,140.006139 205.814185,138.265859 C205.183647,136.8763 204.74548,134.073533 204.688469,133.053845 C204.393171,127.837334 206.48364,122.945731 208.738487,122.824328 C210.39113,122.736232 211.703584,124.270343 211.839626,126.743706 Z M178.90914,125.856413 C179.394418,127.580705 179.435726,129.836908 179.247282,133.064004 C179.001655,137.472491 176.705331,142.785092 171.084089,142.639874 C166.2325,142.506481 164.104649,139.426934 163.911596,134.74633 C163.820446,132.539921 163.996088,130.336676 164.95299,127.224156 C165.460288,125.557484 165.90716,124.966455 167.45039,124.655869 C168.663159,124.447202 168.546235,125.682051 168.262374,127.137392 C167.63781,130.359158 167.34678,131.914752 167.546319,135.57467 C167.737665,139.44925 169.55093,140.966707 171.5354,140.979031 C174.512104,141.053472 175.849308,138.64106 176.425737,135.145345 C176.881997,132.353236 176.560925,131.006476 176.288329,130.145329 C176.134535,129.655719 175.681689,128.553597 175.562375,127.741577 C175.298143,125.943343 176.267846,124.765781 177.154252,124.499327 C178.148535,124.235371 178.532593,124.724148 178.90914,125.856413 Z M217.086709,134.374447 C216.585215,134.371462 215.428433,134.900207 215.417338,136.621836 C215.408633,137.970927 215.895789,138.613915 216.119054,138.889362 C217.717247,138.414074 218.169923,137.12227 218.176922,136.045795 C218.182896,135.13552 217.6884,134.377957 217.086709,134.374447 Z M239.739295,134.355771 C237.644899,134.342985 237.789647,137.674664 238.116864,138.485351 C239.661801,138.226724 240.658473,137.314617 240.940287,136.511424 C241.221929,135.702568 240.898467,134.362636 239.739295,134.355771 Z M208.762042,126.049092 C207.663466,126.10688 207.134832,129.473697 207.336078,133.017207 C207.464097,135.329365 207.814358,135.68758 208.143282,135.667596 C208.750606,135.635954 210.233923,131.51607 210.045307,128.184724 C209.959108,126.680256 209.590412,125.998633 208.762042,126.049092 Z M199.401101,123.509753 C200.338715,123.515444 201.028653,124.106973 201.100685,124.970452 C201.203272,126.210297 200.31294,127.54923 199.104438,127.542098 C198.050925,127.535242 197.519901,126.801992 197.458622,125.914533 C197.362693,124.567773 198.355269,123.503287 199.401101,123.509753 Z M210.341772,102.60562 C211.606343,103.020329 213.049581,104.174947 213.403483,104.768326 C213.904128,104.59052 214.491961,104.501012 215.169042,104.500321 C216.110777,104.499457 217.171109,104.676054 218.436538,105.061387 C218.49575,104.674671 218.554105,104.200002 219.143311,104.199657 C220.026005,104.198966 219.791044,105.178024 220.086076,105.738054 C220.233678,106.034398 220.971516,106.212031 220.972203,106.804719 C220.972546,107.369414 220.498846,107.57746 220.205702,107.577806 C220.087449,107.577806 219.940362,107.548258 219.851457,107.519055 C219.26431,107.727101 219.238394,111.992899 216.765375,111.995318 C214.940431,111.997046 213.261716,110.486988 212.523191,108.592805 C212.316205,108.030184 211.875631,107.674053 211.462688,107.674398 C210.992593,107.674744 210.727939,107.764079 210.170485,108.388216 C208.582562,110.135522 205.933965,111.648345 202.666984,111.651283 C201.665179,111.65232 200.871046,111.564712 200.664746,111.565058 C200.546493,111.565058 200.546493,111.59426 200.546493,111.623117 C200.546493,111.831508 201.547955,112.631724 203.726629,112.62965 C208.906943,112.625157 210.171514,109.689019 210.994653,109.688328 C211.112563,109.688155 211.464405,109.688155 211.671047,110.162651 C212.880354,113.003579 215.51625,113.653462 217.164758,113.651734 C218.57676,113.650179 218.503474,113.533024 218.946108,113.532333 C219.387026,113.531987 219.417233,113.797919 219.417233,113.976417 C219.417919,114.628892 217.974338,115.431872 215.415503,115.434118 C213.913568,115.435501 213.000152,114.634594 212.734125,113.74539 C211.264284,114.695591 209.027942,115.557321 206.819405,115.559576 C200.786432,115.565097 199.252916,112.926512 197.36876,112.071521 C195.924492,111.420256 193.719044,112.697559 190.624895,109.232839 C191.037494,109.320965 191.597695,109.349995 192.039128,109.349822 C194.745049,109.34723 196.1864,108.014459 196.18434,105.878364 C196.18434,105.611222 196.154305,105.317988 196.124956,105.052229 C196.950154,105.377257 198.834997,106.79608 199.279519,109.31388 C199.33856,109.610224 200.544777,109.875984 201.309561,109.87512 C202.370236,109.874428 203.723883,109.42758 203.928123,107.680792 C207.460272,107.381683 209.843529,105.275826 210.341772,102.60562 Z M231.627191,105.043979 C232.308436,105.043303 233.254256,105.680928 233.255636,107.246407 C233.25839,110.000034 229.128029,113.395852 223.599004,113.400589 C221.890982,113.402279 220.973239,112.24559 220.972204,111.08518 C220.971,109.433613 221.885987,107.923778 222.587902,107.110257 C222.911903,106.73191 223.237281,106.44185 223.533033,106.441343 C223.769703,106.441004 224.480575,106.933515 226.076463,106.932669 C229.063091,106.929963 230.859305,105.625622 231.627191,105.043979 Z M229.855265,107.597186 C229.685082,107.597186 228.680181,108.498317 226.345,108.500685 L226.345,108.500685 L225.960367,108.501023 C225.989822,108.761316 226.019277,108.936029 226.019277,109.168584 C226.019966,109.861853 225.843066,110.587934 225.607946,111.281711 L225.607946,111.281711 L228.830382,110.352672 C229.887131,109.684773 230.181677,108.845205 230.181332,108.206397 C230.180815,107.683274 230.003743,107.597186 229.855265,107.597186 Z M216.053796,106.542934 C215.407265,106.543626 214.877099,107.077909 214.877785,107.731075 C214.878129,108.384069 215.409325,108.916106 216.055856,108.915415 C216.703588,108.915242 217.233582,108.381995 217.232896,107.728829 C217.232209,107.075662 216.7017,106.542589 216.053796,106.542934 Z M188.56974,95.4089725 C192.180132,95.4056265 194.956394,98.4473306 194.960225,102.783844 C194.962309,104.738699 193.891023,107.639921 189.534715,107.643273 C184.372637,107.647623 181.234119,103.313287 181.23168,100.500138 C181.229247,98.1425909 182.810686,96.6500361 183.794453,96.4184674 C182.755008,100.613662 185.084972,104.747405 189.860956,104.743052 C192.24886,104.741043 193.409928,103.561265 193.40784,101.523862 C193.405752,99.2532164 191.823095,96.9870916 189.166716,96.9892683 C187.824172,96.9906078 186.899216,97.7387271 186.899912,98.7699863 C186.901478,100.494947 188.36634,101.585982 189.887925,101.584643 C190.901445,101.583638 191.558623,101.180946 191.557927,100.519561 C191.557579,100.405032 191.527478,100.261536 191.467972,100.174803 C191.348089,100.232569 191.109542,100.289834 190.810967,100.290001 C189.587958,100.291006 188.603147,99.6014904 188.602451,98.9129796 C188.602103,98.3664574 188.98872,98.0242112 189.525494,98.0238764 C191.316248,98.022202 192.541346,99.8000735 192.542738,101.09371 C192.543782,102.412296 191.560711,103.562939 189.889665,103.564279 C186.338431,103.567125 184.843815,100.726516 184.842075,98.8290924 C184.839988,96.7916898 186.599075,95.4106497 188.56974,95.4089725 Z M207.52265,97.5679667 C208.073378,97.5674878 208.363946,98.0337099 208.42206,98.5243776 C208.62343,98.3353643 208.796927,98.2534 209.058438,98.2530804 C209.638223,98.2524413 209.986567,98.6875074 209.987243,99.1543687 C209.987243,99.4555437 209.813746,99.7305157 209.581799,99.8946042 C209.930312,100.059332 210.13354,100.306183 210.133879,100.6628 C210.134216,101.101541 209.786548,101.431316 209.322483,101.431955 C208.887814,101.431955 208.626133,100.937133 208.163589,100.937772 C207.903091,100.937772 207.612523,101.049135 207.496803,101.213064 C207.67165,101.597002 207.758821,101.978224 207.759159,102.334362 C207.760848,104.473743 204.893345,106.201226 201.909108,106.203944 C198.925209,106.206019 197.851289,104.45489 197.850444,103.741656 C197.850444,103.577408 197.966165,103.494485 198.169225,103.494485 C198.661839,103.494165 198.778235,103.658733 200.10995,103.657455 C203.297585,103.654739 202.164031,99.5723389 205.147592,99.5699423 C205.553881,99.5685043 206.453291,99.8426775 206.770889,100.390704 C207.00233,100.11717 207.090007,99.8423579 207.089669,99.5951867 C207.089331,99.1297634 206.7692,98.7720282 206.768862,98.336962 C206.768524,97.8704203 207.087642,97.5682866 207.52265,97.5679667 Z M227.313901,101.885958 C229.088067,101.884608 230.383036,102.374243 230.383725,103.215502 L230.383725,103.215502 L230.384415,103.883401 C230.384758,104.203567 230.329639,104.525931 230.09004,104.725506 C229.32801,105.36516 228.175147,105.685326 226.903604,105.686681 C225.307543,105.687863 224.005168,105.13734 224.004823,104.585296 L224.004823,104.585296 L224.003617,103.251019 C224.003273,102.843413 225.155275,101.887821 227.313901,101.885958 Z M236.905431,91.8106511 C239.280297,91.8084717 241.922875,93.3908644 241.926295,96.9599328 C241.929542,100.76026 236.425739,105.48344 235.604143,105.484279 C234.929053,105.484614 234.194472,104.536924 234.19413,103.903061 C234.193788,103.702513 234.281829,103.442222 234.868878,103.212474 C237.677963,102.114079 239.287477,99.5808075 239.28611,98.2848868 C239.28611,97.9965687 239.139775,97.7119428 238.758038,97.7122784 C238.261081,97.7126141 236.129992,102.490504 233.752903,102.492685 C232.108857,102.494196 230.435407,101.030117 230.434723,100.337852 C230.433697,99.1857548 235.185482,97.0524027 235.184114,95.4392986 C235.18343,94.8337971 234.890418,94.8057709 234.655701,94.8061065 C234.039419,94.8064422 230.638498,99.2711761 228.444499,99.2735256 C227.916427,99.2738613 227.475884,98.2952917 227.475199,97.5493234 C227.474516,97.146383 227.737441,96.8580649 228.677506,96.6550004 C233.717345,95.5270694 232.598805,91.8143454 236.905431,91.8106511 Z M218.833526,86.0533328 C220.126852,86.0522928 221.217802,86.4966502 221.218145,87.0627326 C221.218831,87.8380573 219.305339,87.3631384 219.158529,88.285193 C220.513255,88.4628318 220.838602,88.9393135 220.838945,89.3274099 C220.839631,89.9827459 220.249822,90.1904252 219.689683,90.1909462 C219.278069,90.1912935 218.807628,90.1023873 218.306659,90.1030818 C217.659396,90.1034291 217.01299,90.2531111 216.483894,90.8792747 C216.866181,90.938314 217.425976,91.2059008 217.426662,91.8023712 C217.428034,93.5299647 212.69001,92.1031242 212.694126,96.5421834 C212.696013,98.8938567 215.110988,101.454425 218.758406,101.451126 C220.642571,101.449563 221.849287,100.822878 221.848601,100.106767 C221.847915,99.5413787 220.848378,99.9296488 220.848035,99.4524725 C220.847692,99.2440986 221.199622,98.8549603 221.199279,98.526945 C221.198936,98.3822988 221.081797,98.1133227 220.846663,98.11367 C220.315852,98.1140173 219.3158,98.9766854 217.28517,98.9784218 C215.696338,98.979811 214.136663,98.060361 214.135634,96.8085547 C214.135291,96.5407942 214.253115,96.390765 214.429081,96.390765 C214.606246,96.3904177 214.841552,96.5104063 215.04736,96.510059 C215.224525,96.510059 215.25351,96.3900704 215.253167,96.0624024 C215.252824,95.7345608 215.252138,94.8100751 215.809875,94.8099015 C216.369328,94.8092069 217.43095,96.8945089 221.493069,96.8908624 C222.840934,96.8896469 225.460688,96.619629 226.431412,95.7241421 C226.404657,99.0001274 223.876659,103.320413 218.583641,103.32528 C213.083102,103.330485 210.137658,98.8652053 210.133882,94.7552033 C210.12994,90.1992811 213.80154,86.058023 218.833526,86.0533328 Z M191.341705,91.8106522 C192.773951,91.8092862 193.826787,92.2202832 194.791845,93.687445 C195.670828,95.0068806 195.819114,97.2087358 196.285962,97.6202463 C196.520324,97.8256592 196.900585,97.8842019 197.163922,97.8838596 C197.456576,97.883346 197.719572,97.8535612 197.923083,97.8532188 C200.028244,97.851507 201.462195,100.227279 201.463218,101.285497 C201.46424,102.254704 200.617642,102.604591 199.565998,102.605619 C198.308117,102.606645 196.875189,101.876744 196.14313,101.054579 C195.587821,100.467954 195.294486,99.2923074 195.058931,97.8556153 C194.823888,96.3571281 193.653616,95.0946946 191.314945,94.513376 C189.443463,94.0440075 189.180297,93.6924091 189.179785,93.192571 C189.179104,92.36955 190.319719,91.8115115 191.341705,91.8106522 Z M198.012225,98.9372851 C197.691789,98.9372851 197.282552,99.1729968 197.283233,99.6134363 C197.283575,100.142888 198.598896,101.082139 199.476685,101.081112 C199.913705,101.080769 200.059776,100.816129 200.059776,100.60986 C200.058754,99.8467511 198.743603,98.9366007 198.012225,98.9372851 Z M180.92845,70.2207068 C181.316593,70.2203649 181.495108,70.6024113 181.495803,70.9839444 C181.496245,71.5797428 181.171804,72.6486559 180.797381,73.7702993 L180.485458,74.6912461 C180.069562,75.912123 179.683406,77.05931 179.683888,77.5870339 C179.683888,77.7634288 179.743161,77.9098828 179.892474,77.9098828 C180.638342,77.9091984 182.125211,74.739736 182.600439,73.1545771 C182.868124,72.3323133 183.225849,71.8915826 183.554198,71.8912405 C183.852128,71.8908983 184.121204,72.2137472 184.1219,72.8892148 C184.12329,74.4733472 182.634856,78.2015931 181.326154,80.6978121 C180.314686,82.6350765 178.737603,85.4224926 178.738994,86.9782239 C178.739689,87.7702045 178.887785,88.5909285 180.052216,89.5885606 C178.144003,89.4730741 177.368411,89.2975347 176.652266,87.831284 C173.468377,94.0850055 182.530737,93.460352 179.43428,99.0072962 C178.866579,98.0120593 174.394846,96.9882502 174.389284,91.1781679 C174.384938,86.1610928 178.853021,83.2220901 178.851283,81.138885 C178.850935,80.7289507 178.702839,80.3765031 178.314695,80.0539964 C177.329127,79.2327591 177.298361,78.5591735 176.524855,78.5598579 C175.957502,78.5605422 175.272471,79.8517667 175.989311,80.9944841 C176.228837,81.3758461 176.437423,81.6105831 176.437771,81.9630307 C176.438466,82.7839258 175.128025,84.9850127 174.205728,84.9860392 C173.28065,84.9867236 172.564505,82.7305454 172.561021,79.0898981 C172.558248,75.8624357 173.299075,72.6052036 174.223806,72.604177 C174.491665,72.604177 174.581183,72.7798876 174.58153,73.0151378 C174.581878,73.396842 174.463679,74.1592239 174.464722,75.4490797 C174.465765,76.8297848 174.794114,76.9473243 175.062842,76.9473243 C176.075353,76.9462978 175.860683,70.8419388 177.500515,70.8405701 C177.888311,70.8402279 178.008074,71.2222743 178.00877,71.6915771 C178.009813,73.0709135 177.324956,75.0962898 177.325999,76.210435 C177.326694,76.7685342 177.47618,76.9449291 177.744561,76.9445869 C178.461053,76.9439025 179.706311,70.2215625 180.92845,70.2207068 Z M203.573842,85.1538206 C203.837205,86.6401428 204.446019,87.4126502 205.753354,87.8981976 C208.337048,88.8389459 208.687409,90.2680761 208.688766,91.785412 C208.691471,94.3602142 206.865197,97.5639604 202.163262,97.5679645 C198.38885,97.5711303 195.685491,94.2566685 195.682781,91.4537657 C195.682106,90.6802579 195.884875,89.82338 196.378595,89.8230465 C196.814599,89.8227131 196.960159,90.1645305 197.307642,90.5076818 C198.616161,91.7945827 200.038251,92.1353997 202.099452,92.1335655 C203.957546,92.1318981 205.320904,91.3872364 205.320227,90.614729 C205.319381,89.3284951 202.618561,89.3026504 202.616868,87.3572924 C202.61653,86.8707445 202.93507,86.041879 203.573842,85.1538206 Z M237.816263,93.0198086 C237.405978,93.0201458 236.96629,93.3380005 236.967143,94.115855 C236.967828,94.9767814 237.643089,95.5242164 238.024483,95.6958983 C238.229797,95.8113597 238.552896,95.9261499 238.872747,95.925815 C239.724944,95.925143 240.399691,95.6937166 240.399008,95.0022903 C240.398324,94.1126664 239.076522,93.0182998 237.816263,93.0198086 Z M206.627561,91.9022964 C206.394665,91.9022964 206.135703,92.3588315 205.438706,92.6741373 C204.443142,93.1240023 204.045898,93.0474686 204.046913,94.0494104 C204.047252,94.4210744 203.960085,94.9051212 203.960085,95.1624013 C203.960423,95.5058861 204.019324,95.7066413 204.425201,95.7063083 C205.470527,95.7053074 207.123143,93.9603712 207.121959,92.4723816 C207.121282,92.0712047 206.888893,91.9019634 206.627561,91.9022964 Z M218.455869,91.7723289 C220.160467,91.7707678 221.312473,92.8708085 221.313503,94.0038417 C221.314188,94.7746516 220.755422,95.4315503 219.929106,95.4324192 C219.164875,95.4331132 218.635093,94.8072968 218.634407,94.0950053 C218.634064,93.5886566 218.839871,93.1113067 218.839528,92.6648656 C218.839185,92.3661963 218.750002,92.0677006 218.455869,91.7723289 Z M244.34901,84.6140015 C245.810815,84.6126413 246.982304,86.5083193 246.984181,88.7267202 C246.986223,91.0885346 245.877431,93.6577287 243.897008,95.4089725 C243.864467,91.4709706 239.038464,92.7298791 239.036077,89.8706257 C239.034715,88.6459119 239.911628,87.8272811 240.965219,87.8264305 C241.901081,87.82575 242.632154,88.087569 243.15912,88.6137587 C242.632154,88.1173405 242.368246,87.4171151 242.367564,86.7468314 C242.366542,85.6366102 243.0678,84.6153632 244.34901,84.6140015 Z M183.188347,87.5223627 C184.321339,87.3282963 185.151399,88.114776 185.41745,89.0194214 C185.652968,88.8077446 186.007704,88.6569997 186.391085,88.6082189 C187.381017,88.4823047 188.331323,89.2888602 188.449682,90.3757731 C188.539224,91.4338049 187.823407,92.309217 186.761945,92.5159629 C186.653363,92.5372714 186.510303,92.5524164 186.510303,92.5524164 C186.598472,92.763741 186.655765,92.946889 186.687499,93.2473221 C186.80603,94.3654053 186.069628,95.2425785 184.98621,95.3882163 C183.919431,95.5324454 183.128824,94.9115033 182.89262,93.9461021 C182.656759,94.0975514 182.302366,94.2060313 181.921386,94.2493529 C180.862669,94.3705123 179.925057,93.5901962 179.800865,92.5582278 C179.659691,91.3864329 180.5901,90.4974608 181.448463,90.3652068 C181.567337,90.3477726 181.741274,90.3206526 181.741274,90.3206526 C181.652247,90.1109129 181.610221,89.9017016 181.593239,89.7180253 C181.489975,88.5883192 182.165653,87.6972338 183.188347,87.5223627 Z M228.191921,89.8572006 C230.394915,90.0039306 231.809153,91.3423857 231.810526,92.9202973 C231.811554,94.0831974 230.987811,95.0642913 229.780924,95.0651605 C228.668707,95.0662014 227.931575,94.2651773 227.930545,93.2813051 C227.92986,92.4172479 228.48794,91.6434861 228.487254,90.8087749 C228.486911,90.5109738 228.398585,90.1826112 228.191921,89.8572006 Z M222.360889,86.7046768 C225.452627,87.2976742 227.131842,89.649174 227.133902,91.8529019 C227.135272,93.372816 226.195591,94.7706577 224.546561,94.7720479 C223.045026,94.7732624 221.960766,93.7341711 221.95905,92.0649223 C221.958193,90.8145051 222.921371,89.5036595 222.920341,88.2221599 C222.919998,87.7166795 222.772846,87.2106781 222.360889,86.7046768 Z M184.177779,90.3482451 L184.055802,90.3562255 C183.441019,90.4301891 183.002746,91.0021744 183.074791,91.6329783 C183.145292,92.26343 183.702782,92.7140797 184.316879,92.6402922 C184.930976,92.5659764 185.369592,91.9968088 185.297204,91.3656527 C185.225845,90.7337921 184.670242,90.2817336 184.055802,90.3562255 Z M224.276439,89.0259622 C224.039932,89.0261359 224.129287,89.3840182 224.069946,89.7710727 C224.040962,90.0685265 223.894838,90.4253668 223.894838,90.6644759 C223.895181,91.0813974 224.190172,91.4088918 224.602472,91.4085447 C225.073256,91.4081972 225.368075,90.9907547 225.367732,90.5137521 C225.367046,89.8896722 224.806564,89.025615 224.276439,89.0259622 Z M230.126802,76.3032863 C230.571755,76.302595 231.196973,77.754864 231.494185,77.7545183 C231.968893,77.7541726 232.620753,76.5679483 233.067263,76.5677755 C233.214312,76.5674297 233.274169,76.6566299 233.274515,76.923539 C233.275553,78.019353 232.712615,79.2648711 232.713653,80.3340634 C232.714345,81.073768 232.95343,81.9336164 233.695422,81.9329249 C234.318563,81.9325792 234.852611,80.9850864 234.851919,79.9463191 C234.850535,78.7600949 234.641898,77.8411255 234.641552,77.3659097 C234.641379,77.1593318 234.7303,77.070823 234.849151,77.070823 C235.294969,77.1000378 235.711204,78.3147854 236.186777,78.3144397 C236.721517,78.3140939 237.516273,77.3335833 237.842376,77.3332376 C237.931644,77.3332376 237.960534,77.4519983 237.960534,77.4812131 C237.961226,77.9270412 237.279438,78.9070332 237.279784,79.2914929 C237.28013,79.6170045 239.002506,79.6747426 239.002852,79.9717308 C239.003198,80.4168674 237.198129,80.4185961 236.337632,80.8047845 C235.506546,81.1607209 235.00139,81.6060304 235.001736,82.1994883 C235.002428,82.7926004 235.596679,82.9096324 236.42863,82.9089409 C237.656468,82.9078708 238.657904,82.4981911 239.348229,82.1861274 L239.644441,82.0508727 C239.917945,81.926236 240.122402,81.8389832 240.249482,81.8388844 C240.338749,81.8388844 240.397223,81.8976597 240.397569,81.9870328 C240.397915,82.2836753 239.389851,83.2624572 239.390197,83.7070752 C239.390889,84.2109871 241.232634,84.8006419 241.203397,85.0979759 C241.173641,85.1870032 241.054272,85.2165637 240.846674,85.2165637 C240.519187,85.2169094 240.01576,85.1289193 239.628762,85.1292651 C239.391581,85.1296108 239.183636,85.1588256 239.094023,85.2772406 C238.889192,85.5156264 239.155437,87.0861375 238.74197,87.0864832 C238.355664,87.0868289 237.342929,83.5903889 235.063323,83.5921176 C234.736355,83.5924633 234.499693,83.8591996 234.499866,84.304509 C234.500904,85.4891775 235.660515,86.8519005 236.759577,87.5032694 C237.25764,87.8296453 238.089764,88.1551568 238.09011,88.3333843 C238.090456,88.6877649 236.195946,88.3646735 236.196292,88.9567484 C236.196984,89.4910852 236.435204,90.292504 236.435896,90.7652996 C236.435896,90.9137937 236.406313,91.0909841 236.227951,91.0909841 C235.872266,91.0913297 235.008137,89.4629077 234.593112,89.4632534 C234.237254,89.4635991 233.466025,90.441171 233.137846,90.4415167 C233.050309,90.4415167 232.990797,90.353008 232.990451,90.2653636 C232.989759,89.5830513 234.087091,88.0403721 234.08588,86.5282905 C234.085188,85.816072 233.994709,84.2747756 233.132483,84.2758129 C232.420766,84.2765043 231.619263,85.402916 231.263923,86.5310564 C231.186463,86.7754494 231.159264,87.282581 231.130436,87.821066 L231.110406,88.1821617 C231.064016,88.9635966 230.990167,89.7031662 230.732471,89.7035407 C230.286826,89.7038865 230.403946,88.014096 229.809695,88.0142689 C229.371835,88.0149604 228.422245,88.8151691 228.09545,88.8155148 C228.035938,88.8155148 227.976254,88.7859543 227.976254,88.7270061 C227.975908,88.3721069 228.836058,87.2140602 228.835712,86.9770574 C228.835366,86.5331309 226.875808,86.4760842 226.875462,86.1198021 C226.875116,85.9114954 227.647037,85.7631742 228.3591,85.6432034 C229.867823,85.3747385 232.093798,84.2765043 232.092587,82.7362452 C232.090857,81.0167214 230.426782,80.2759795 229.334121,79.564971 C228.769453,79.2092075 228.145792,78.9149851 228.145273,78.6779823 C228.145273,78.4399422 228.858548,78.4392508 229.154722,78.4392508 C229.599848,78.4385593 230.039784,78.4084802 230.039438,78.0528895 C230.039092,77.785116 229.978369,77.2531994 229.978023,76.8379691 C229.977677,76.540808 230.007087,76.3032863 230.126802,76.3032863 Z M200.164855,71.6600363 C201.704239,72.4879014 202.83724,73.8896863 202.838255,75.0321901 C202.839948,77.0057272 200.751835,77.9219646 200.75285,79.1528408 C200.754204,80.5823045 202.988893,80.8099049 202.990586,82.5826867 C202.99194,84.0394959 200.873868,85.7292411 200.875561,87.6165734 C200.876915,89.0747165 201.923595,90.273912 203.520357,90.4729998 C202.997864,90.5882173 202.533763,90.674422 202.040212,90.6750907 C199.107511,90.6774233 196.086967,88.3078783 196.084425,85.4754625 C196.083074,84.0741778 196.692396,82.845636 197.619073,81.9582447 C198.433364,82.6435469 199.245794,83.0997481 199.768964,83.0994146 C200.233742,83.0987477 200.43668,82.8711473 200.436341,82.5279959 C200.435495,81.4680285 196.166517,80.501102 196.164486,78.2412721 C196.162793,76.4107981 200.575639,75.435368 200.573777,73.175538 C200.573439,72.8035406 200.426863,72.1474179 200.164855,71.6600363 Z M188.993635,71.6600363 C188.380298,72.7176044 188.235482,74.0978901 188.236163,74.9509334 C188.240763,79.9446625 194.234943,84.6105353 194.23767,87.6943382 C194.238691,88.9574589 193.33453,90.3696053 191.67,90.3713194 C190.207872,90.3726885 189.418882,89.1965851 189.418201,88.2284323 C189.417519,87.4636054 189.943967,86.875211 190.117576,86.8748685 C190.204806,86.8748685 190.233939,86.9337935 190.23428,87.1391748 C190.234621,87.5509652 190.557134,88.0800919 191.22976,88.0797493 C191.843609,88.0794067 192.251137,87.6374686 192.250456,87.0793933 C192.248582,84.6415395 187.306957,80.3864293 187.301676,74.5401708 C187.038963,75.186805 186.717813,76.0088441 186.719176,77.2442153 C186.721561,80.0638831 188.769767,83.0005445 188.772152,85.6425806 C188.773174,86.7304678 187.927621,87.6999909 186.875066,87.7010186 C185.648221,87.7017038 185.208833,86.7338936 185.208151,86.1165507 C185.207811,85.704589 185.383123,85.322775 185.499657,85.322775 C185.646176,85.3224324 185.587909,85.9399467 186.260706,85.9392615 C186.960763,85.9385764 187.223646,85.4380558 187.222964,84.5288281 C187.22075,82.0913169 185.817059,80.3581659 185.815185,77.8312392 C185.814503,77.4502817 185.814163,77.0386627 185.901052,76.6568487 C185.141536,77.5691597 185.054987,78.861229 185.05601,80.0066709 L185.05601,80.0066709 L185.058565,83.0039704 C185.06061,85.0283209 184.039403,85.9413171 182.811195,85.9426874 C182.023227,85.9433726 181.232704,85.3263722 181.23168,84.2398554 C181.231341,84.0932279 181.319252,83.5647864 181.494905,83.5644438 C181.728825,83.5641012 181.904819,84.1802452 182.576934,84.17956 C183.862728,84.1787035 183.949106,82.9167818 183.947062,80.3895126 C183.944506,77.4819711 185.13864,74.1593846 188.993635,71.6600363 Z M218.553354,71.6600363 C218.698597,72.7710729 219.438384,73.1432981 220.220116,73.4745171 L220.533736,73.6064717 C221.421242,73.9835197 222.267985,74.4274031 222.269542,75.9539191 C222.269888,76.3992286 222.151556,77.052499 222.151902,77.6143219 C222.152594,78.267938 222.212798,78.8311439 222.711208,78.8304524 C223.215326,78.8302795 223.334522,78.4746888 223.334176,77.9993002 C223.33383,77.5240845 223.213596,76.9323553 223.21325,76.6063252 C223.212212,75.5675578 223.954896,75.3309007 224.400714,75.3309007 C225.529358,75.3296906 226.391238,76.4847985 228.084205,76.4832427 C227.699629,78.3809941 223.778956,77.879848 223.781032,79.9561726 C223.78207,80.99494 224.821274,81.2291769 225.504793,81.2291769 C226.128972,81.2284854 226.336571,81.1389395 226.336225,80.6066771 C226.335879,80.309516 226.275329,79.9836587 226.275329,79.7755249 C226.275156,79.65711 226.365116,79.5378306 226.513549,79.5378306 C227.167311,79.5371392 230.369,81.9659428 230.369692,82.7080676 C230.370384,83.3886513 226.992236,84.0737295 226.012371,84.074421 C225.715505,84.0747667 225.655647,83.8669787 225.655647,83.7492551 C225.655301,83.5418128 226.159247,82.918103 226.158901,82.5630309 C226.158901,82.2962947 225.713775,82.1187586 224.5251,82.119623 C223.961124,82.1203145 223.545235,82.1797812 223.545581,82.6261279 C223.546273,83.4244351 224.855009,84.4020069 224.855701,85.142576 C224.856047,85.7358609 224.499842,86.0921431 223.548695,86.093008 C222.747191,86.0936989 221.534989,85.471372 221.533951,84.4343334 C221.533259,83.6045641 222.388392,82.7742763 222.388046,82.2700187 C222.388046,82.1213517 222.274559,81.8845217 221.918181,81.8846946 C220.819466,81.8857318 220.524849,84.7900969 216.636873,85.1197573 C217.260015,84.5572429 217.793024,83.9335331 217.791986,82.660183 C217.791294,82.0371647 217.643553,81.5323884 217.642861,80.8516319 C217.641823,79.9618773 218.055982,79.5158763 218.649541,79.5151849 C219.746873,79.5141476 220.282304,81.055444 220.996789,81.0547525 C221.384134,81.0544068 221.798293,80.6996804 221.797947,80.1656893 C221.795525,77.9116558 217.462078,78.2420077 217.45931,75.0698692 C217.458272,74.2096751 217.752889,73.1425573 218.553354,71.6600363 Z M230.422777,60.1454005 C230.568384,60.1454005 231.181357,60.9133103 233.16198,60.9112442 C234.181566,60.9105555 235.113414,60.6435088 236.599348,60.6421314 C240.086099,60.6390322 241.633127,63.0898007 243.792449,66.2161921 C245.096629,67.0409203 248.215122,68.3677169 248.218346,72.1179058 C248.221401,75.4252553 244.756032,77.2596298 243.921085,80.8032063 C245.254285,80.6554783 246.039169,78.232086 247.407837,78.2307085 C248.107359,78.2300198 248.42844,78.7916615 248.42929,79.6782012 C248.430307,80.9767608 247.703462,82.9270105 246.306114,84.1386206 C246.335473,84.0198184 246.335134,83.8724348 246.335134,83.6945759 C246.334455,82.8684703 246.013204,81.6894017 245.080338,81.689746 C243.630211,81.6911234 243.16556,83.2854832 242.351147,84.6140015 C241.503982,81.604174 240.365433,78.8870476 238.327111,77.235525 C236.264181,75.5547324 232.709717,76.4724362 232.706832,73.4021746 C232.706153,72.574175 233.229692,71.3933846 233.228674,70.4483047 C233.228674,70.1237509 233.169956,69.8281228 232.993973,69.5917237 C235.792572,70.6535397 234.803364,72.5426666 236.525017,74.4899894 C237.597211,75.7305252 240.567721,76.9089051 242.291072,82.0151607 C242.319752,81.8679493 242.348432,81.4851997 242.348093,81.2188417 C242.34402,76.8481266 236.639059,72.5710758 236.142842,70.7992015 C239.454968,71.1804016 240.038412,72.0077124 241.615817,76.4342129 C241.936559,77.3508837 242.988049,79.6241376 242.988897,80.7453548 C243.453888,79.2687641 244.036145,78.2338077 244.988697,76.6387593 C244.034108,76.1387571 241.497872,75.076941 241.496515,73.334509 C241.494987,71.2969655 243.997792,69.7000231 244.516748,69.7000231 C244.749413,69.6996787 244.808301,69.9062912 244.80898,70.2907626 C244.809659,71.3530952 244.315818,73.0660849 244.316497,73.9824113 C244.317006,74.8081726 244.842581,75.605869 245.308251,75.6051803 C245.803788,75.6048359 247.17059,73.8319286 247.169232,72.0894966 C247.166177,68.9581121 244.457012,68.01682 243.618162,68.0175087 C242.831581,68.0185417 241.405553,69.3186509 238.057111,69.3212335 C231.801288,69.3270875 230.367793,63.0402137 230.365417,60.2931285 C230.365417,60.1751872 230.393758,60.1454005 230.422777,60.1454005 Z M194.622026,63.7437242 C195.331595,63.7430532 196.660532,64.9813089 197.016521,66.246921 C196.868824,66.2187254 196.721126,66.1896907 196.573256,66.1900264 C195.627508,66.1906977 195.099032,67.111921 194.331622,68.6668734 C196.042542,67.5410644 197.635888,66.6201767 199.437354,66.6184984 C200.971828,66.6171558 202.184397,67.5360294 202.185774,68.9473187 C202.186118,69.551174 201.891067,70.2142735 201.507706,70.7887583 C201.269978,69.4941115 200.177221,68.9206336 198.287962,68.9223119 C197.19641,68.9233189 195.896221,69.1243802 194.863713,69.4998177 C198.200686,69.9583315 198.703857,71.1375108 198.704718,72.2030686 C198.706439,74.0168161 196.847134,74.9101795 195.60685,75.5165522 C195.724423,74.9977872 195.812732,74.4496518 195.812388,73.8755026 C195.811355,72.7805744 195.39787,71.5436613 193.7126,70.3369578 C193.449223,71.5166406 192.505712,72.2378095 192.506401,73.1576902 C192.506745,73.5037573 192.741719,73.6183858 192.919197,73.6183858 C192.919886,74.1368152 192.684568,75.6048312 192.684912,75.9799331 C192.685601,76.7558149 192.863423,76.9001494 193.247472,76.985911 C193.484512,77.6483392 193.493291,78.7587078 193.655449,79.3543393 C193.74875,79.6935254 194.016258,79.77828 194.223517,79.7779443 C194.46004,80.3531005 194.756985,81.2169257 195.318685,81.6177056 C195.435397,81.7043063 195.583095,81.9057033 195.583439,82.0784012 C195.583783,82.5969984 194.787971,83.1740007 194.286005,83.174672 C194.138307,83.174672 193.882676,83.0857217 193.655449,82.5543694 C193.470224,82.1183449 192.040929,81.2479744 191.951587,80.7293772 C192.04024,80.6424408 192.099113,80.4697429 192.099113,80.2683459 C192.098424,79.462758 190.798924,78.5422061 190.797547,77.2765939 C190.945245,77.2185245 191.092943,76.9879249 191.092598,76.7284585 C191.09191,76.0096391 190.322091,74.5986855 190.321574,73.6501058 C190.646406,73.6497701 190.823885,73.6203998 190.852805,73.1593685 C190.910816,72.2101175 191.116354,70.797989 192.030428,69.992569 C191.823858,69.9638699 191.559103,69.9351709 191.204146,69.9355065 C189.432633,69.9368492 186.687657,70.9466871 185.656698,73.1929347 C185.597481,72.8472032 185.567356,72.5316813 185.56701,72.2440193 C185.565291,70.3722023 186.715371,69.1326039 187.571778,68.7591804 C188.014183,68.5571121 188.545413,68.4988748 189.136549,68.4985391 C190.079887,68.4975321 191.203286,68.6985935 192.354227,68.8989834 C191.349951,67.6036653 189.8141,66.6554212 188.544036,66.6567638 C187.95445,66.6570995 187.481403,66.8593356 187.334394,67.3475554 C187.275005,67.090103 187.245052,66.657603 187.24488,66.3692697 C187.243847,64.96033 187.715689,64.1530638 188.955111,64.1520568 C190.785325,64.1503785 192.351817,66.279648 193.298254,68.2640795 C193.2955,65.2437963 193.353339,63.7450671 194.622026,63.7437242 Z M229.82154,73.1070739 C230.470904,73.1064145 230.972872,73.5869716 230.973217,74.1525173 C230.973903,74.8037117 230.472965,75.2576995 229.823602,75.2583598 C229.240893,75.2586897 228.709205,74.805527 228.708861,74.1544976 C228.708174,73.5889519 229.238831,73.1074046 229.82154,73.1070739 Z M226.111407,71.1003519 C227.23113,71.0993626 228.146767,71.9766433 228.147798,73.0512956 C228.148828,74.126278 227.234909,75.005209 226.115187,75.0062 C224.99409,75.0071893 224.079827,74.1299086 224.078796,73.0545962 C224.077766,71.9802739 224.99031,71.1013429 226.111407,71.1003519 Z M222.482015,70.1983175 C223.131035,70.197658 223.662895,70.7059395 223.66341,71.3290794 C223.663753,71.9523844 223.13344,72.460831 222.484076,72.4611616 C221.842443,72.4618211 221.310756,71.9541997 221.310068,71.3310598 C221.309725,70.7080849 221.840382,70.1989782 222.482015,70.1983175 Z M229.700773,69.3142708 C230.467296,69.3136112 231.087284,69.9077065 231.087972,70.6424043 C231.088658,71.3794125 230.469873,71.9743329 229.703349,71.9753236 C228.94301,71.9759832 228.322507,71.3815579 228.321819,70.6448797 C228.321133,69.9098518 228.940261,69.3149314 229.700773,69.3142708 Z M171.838466,68.3965222 C172.754949,69.7363713 173.608318,70.1438853 174.705609,70.1430353 C175.527866,70.1423552 176.442926,69.9670749 177.631776,69.7032193 C176.078822,70.9869651 174.767834,71.6593548 173.793037,71.6600355 C172.543029,71.6610549 171.840599,70.6114129 171.838466,68.3965222 Z M219.036781,67.8234212 C219.949669,67.8224321 220.717567,68.5584501 220.718255,69.4347406 C220.718942,70.3133415 219.952761,71.0483694 219.039873,71.04936 C218.12561,71.0500197 217.360117,70.316312 217.359429,69.4377111 C217.358399,68.5614206 218.122518,67.8240823 219.036781,67.8234212 Z M226.343838,67.9303587 C226.992343,67.9296993 227.523,68.4388059 227.523688,69.0611207 C227.524374,69.6840956 226.994404,70.1945225 226.3459,70.1951828 C225.69688,70.1955127 225.166223,69.686241 225.165535,69.063101 C225.164848,68.4411163 225.694818,67.9310195 226.343838,67.9303587 Z M180.373047,65.3854746 C180.250731,65.7358652 180.16006,66.1144776 180.160416,66.7273637 C180.161483,67.6015553 180.467273,68.476597 181.320998,69.2622133 C181.076899,69.4378337 180.682038,69.5542905 180.132859,69.5549718 C179.06437,69.5559906 178.211356,68.8853011 178.210466,67.8361692 C178.209045,66.3788432 179.67044,65.5607549 180.373047,65.3854746 Z M222.861497,65.8960777 C223.864232,65.895418 224.662021,66.6583354 224.663053,67.6202747 C224.664082,68.5836992 223.867324,69.3472766 222.864933,69.3479377 C221.869071,69.3489269 221.071797,68.5866696 221.070765,67.6234102 C221.069735,66.6616359 221.865635,65.8970683 222.861497,65.8960777 Z M182.90062,62.9640217 C184.426551,63.3990773 186.287429,64.7688482 186.289564,66.7220934 C186.290629,67.9750674 185.590333,69.2001597 184.096226,69.2013508 C182.541494,69.2027098 181.533274,67.8919325 181.531849,66.3178096 C181.530251,65.0065222 182.230725,63.7222664 182.90062,62.9640217 Z M172.903755,65.800299 C173.635519,66.7617058 174.855482,67.0508928 175.983174,67.0498728 C176.349056,67.0495327 176.745695,67.019951 177.079931,66.9621476 C176.28932,67.9254244 175.403594,68.3640503 174.643206,68.3647314 C173.636942,68.3657504 172.875487,67.6075057 172.874065,66.2372248 C172.874065,66.0920362 172.87371,65.9468477 172.903755,65.800299 Z M229.460783,65.8903016 C230.139351,65.8896421 230.700758,66.4266382 230.701274,67.0763474 C230.701617,67.728532 230.141584,68.2671784 229.462844,68.2675091 C228.792523,68.2681686 228.230428,67.7306774 228.230084,67.0786578 C228.229397,66.4286185 228.790118,65.8909623 229.460783,65.8903016 Z M237.119323,62.236491 C237.002396,62.236491 236.863069,62.3249902 236.863408,62.6800193 C236.863748,63.0047453 236.922975,63.2118743 236.923314,63.5944517 C236.923653,63.978751 236.835407,64.2445924 236.486494,64.2449367 C235.699574,64.2456255 234.998694,62.3862852 234.32853,62.3866296 C234.182923,62.3869739 234.037826,62.4758173 234.038165,62.6232009 C234.038505,62.9778856 234.621101,63.6261323 234.62144,63.9513748 C234.622119,64.6605722 232.728385,64.2776504 232.729063,64.8687343 C232.729403,65.1349201 232.990409,65.2220417 233.34,65.2218695 C233.952804,65.2211808 234.913672,64.9560281 235.4087,64.9556837 C235.700253,64.9553394 236.137581,65.0138796 236.137751,65.3966292 C236.138091,65.8101986 235.089995,66.3420535 235.090334,66.726525 C235.090673,66.9036952 235.265639,66.9904724 235.410567,66.9904724 C236.197487,66.9899559 237.588217,65.6022086 238.578443,65.6011756 C238.75273,65.6011756 239.188362,65.6891581 239.188701,65.9551717 C239.189041,66.3382656 238.200851,67.0176764 238.20119,67.5786293 C238.201529,67.7267016 238.289776,67.9038718 238.463723,67.9038718 C238.985735,67.9035275 239.683221,66.5157802 240.674296,66.5147472 C241.053246,66.5144028 241.607162,66.6612698 241.898885,66.6609255 C242.131719,66.6609255 242.219117,66.5133697 242.219117,66.424182 C242.218778,65.8043445 240.673447,65.7471817 240.526822,64.0049219 C240.497124,63.7394248 240.409726,63.2676597 240.088475,63.268004 C239.564597,63.2686927 239.973585,64.8921504 239.390989,64.8924947 C238.053208,64.8938721 237.614182,62.2358024 237.119323,62.236491 Z M219.53308,64.3141338 C220.183131,64.3134743 220.713788,64.8230761 220.714476,65.4448958 C220.715162,66.0672106 220.185192,66.5776374 219.535142,66.5782982 C218.888698,66.5789577 218.357011,66.0691909 218.356323,65.4472061 C218.35598,64.8252214 218.886293,64.3144645 219.53308,64.3141338 Z M226.221009,62.8937507 C227.253119,62.8927615 228.108629,63.7117878 228.109661,64.7034319 C228.110691,65.6935907 227.256555,66.5144323 226.224445,66.5154234 C225.192506,66.5164126 224.336824,65.6963961 224.335793,64.7070624 C224.334934,63.7149233 225.189071,62.8947418 226.221009,62.8937507 Z M178.9929,58.2430047 C179.236466,58.2426731 179.479854,58.2527037 179.663862,58.2714048 C180.213396,58.3293782 180.65057,58.3380487 180.791909,58.4747368 C181.03992,58.7117308 180.891825,59.1617473 181.281174,59.6692273 C181.670346,60.1790873 182.136499,60.106323 182.13721,60.6608958 C182.137566,61.0986716 181.284908,63.6942148 179.090504,64.7465769 C178.055083,65.241306 177.231048,65.4470182 176.530574,65.4473598 C175.34048,65.4483783 174.517512,64.9544991 173.786637,64.9551792 C173.664498,64.9551792 173.512314,65.0136626 173.267504,65.0140026 C172.994781,65.0140026 172.689346,64.7227755 172.688991,64.46011 C172.688991,64.343143 172.723303,64.2283863 172.780194,64.138791 C173.205101,63.4674214 172.813263,60.7960537 175.456752,59.1797684 C176.794941,58.3632102 177.987347,58.2436931 178.9929,58.2430047 Z M246.984542,55.9334852 C247.785307,56.215393 247.703445,57.4288292 247.705053,58.9792396 L247.704535,59.2197182 C247.690902,61.8834977 247.413878,65.1204341 246.716119,65.1815391 C245.639694,65.267673 241.667391,61.6618837 241.305045,58.9848285 C242.382757,59.0964409 245.716248,58.558104 246.984542,55.9334852 Z M222.328435,62.868832 C222.947908,62.8681725 223.449532,63.3487296 223.449877,63.9421648 C223.450563,64.5375803 222.949969,65.0197876 222.330497,65.0201183 C221.717209,65.0207778 221.216271,64.5393956 221.215584,63.9441451 C221.214897,63.35104 221.715491,62.8694927 222.328435,62.868832 Z M193.028237,52.9487545 C195.284052,52.9468947 196.483514,54.9769278 196.485677,57.2406033 C196.48601,57.5591759 196.457055,57.9073555 196.400477,58.2266048 C197.369133,56.6009204 198.71054,55.3526844 200.165771,55.3513309 C202.049166,55.3493007 202.906329,57.0023929 202.908328,58.8596896 C202.908992,59.6709246 202.682844,60.8624841 202.31159,60.8628225 C201.940003,60.8631608 201.996914,60.1952243 201.938672,59.5849793 C201.881594,58.8021672 201.738318,58.6280773 201.480886,58.6284157 C200.995643,58.6287541 200.684129,59.7895222 200.684794,60.8640067 C200.68546,61.5302514 200.800114,62.2851483 201.312815,62.2848099 C201.598203,62.2844716 201.855468,62.1389737 202.026701,61.9648839 C201.913877,63.2992343 200.943225,64.4620327 199.57436,64.4633875 C197.062944,64.4657547 196.118084,61.4771278 195.830866,59.7360602 C194.320055,61.3624214 192.923567,62.5543193 190.411153,62.5565187 C188.071968,62.5582105 187.013452,60.8184964 187.012121,59.1648966 C187.011788,58.6705424 187.182023,57.3947295 187.782087,57.3940527 C188.494475,57.393376 187.869617,59.7722655 189.267769,59.770912 C189.610901,59.7705736 190.237257,59.4792396 190.579224,58.522676 C190.778579,57.9415306 190.892568,57.3333159 190.892235,56.8102004 C190.89157,56.0258656 190.719338,55.5343875 190.15006,55.5347259 C189.663485,55.5354026 189.064087,55.9118359 188.864731,56.1151945 C189.548831,54.0249321 191.202751,52.9504476 193.028237,52.9487545 Z M175.824056,60.4912248 C175.489108,60.4915658 175.032734,61.2217589 175.033444,61.8037032 C175.034512,62.8837769 176.133047,64.0777574 177.138244,64.0770776 C177.687423,64.0763973 178.267359,63.78364 178.267003,63.579288 C178.267003,63.5211445 178.2062,63.4919028 178.114285,63.4340994 C177.198514,63.0277754 176.222295,62.2113873 176.037576,60.783473 C176.006997,60.5787809 175.945839,60.4908857 175.824056,60.4912248 Z M199.995536,57.2372196 C199.396138,57.2378964 198.400524,60.1108017 198.401688,61.6774411 C198.402355,62.2875169 198.545631,62.5489054 198.717197,62.5485674 C199.429586,62.5478903 200.226676,59.7609302 200.225014,58.0200318 C200.224679,57.642245 200.167102,57.2372196 199.995536,57.2372196 Z M225.490216,55.3387992 C225.830145,55.8088316 226.029425,56.7829367 226.030086,57.2254616 C226.032554,60.4390113 223.771468,61.6789064 221.686276,61.6807975 C220.328208,61.6821729 219.64835,61.2109371 219.478221,61.2109371 C218.942965,61.2116248 218.972281,62.3328944 218.604519,62.3038397 C217.954142,62.1865895 217.360913,60.6831393 217.35943,59.0913216 C217.358772,58.146615 217.583909,57.1444868 218.090014,56.4067732 C218.826197,57.1434553 219.474598,57.466667 220.266777,57.4659793 C220.579201,57.4656354 220.946964,57.3774399 221.14542,57.3770961 C221.39872,57.3770961 221.568519,57.4936586 221.568519,57.6999639 C221.568849,58.0247229 221.286563,58.5561311 220.947952,58.8518355 C221.286892,58.9989999 221.654654,59.0581408 222.050744,59.057797 C223.656017,59.0560778 225.492851,57.9911983 225.490216,55.3387992 Z M227.663695,60.1454007 C228.28248,60.1450708 228.785479,60.6267831 228.785824,61.2213734 C228.78651,61.8144786 228.28437,62.2966859 227.665757,62.2970166 C227.045941,62.297676 226.54466,61.8164589 226.543972,61.2233538 C226.543629,60.6285984 227.043879,60.146061 227.663695,60.1454007 Z M178.871651,59.2355287 C178.415276,59.2358717 178.080151,59.2943551 178.080506,59.8472278 C178.081217,60.7226094 178.935831,62.2674906 180.003609,62.2668108 C180.49163,62.2661305 180.735374,61.7399494 180.735018,61.3332854 C180.735018,61.1289334 180.15206,60.7911235 179.941029,60.5167273 C179.604481,60.0792914 179.604126,59.4970071 179.329803,59.3521585 C179.176552,59.2642634 179.085349,59.2351916 178.871651,59.2355287 Z M184.269744,58.8513083 C184.939461,58.8506289 185.489351,59.3754499 185.490063,60.0158777 C185.490418,60.6578356 184.941595,61.1840166 184.271878,61.1843573 C183.600916,61.1850367 183.050849,60.6602157 183.050315,60.0182578 C183.049604,59.3778301 183.598427,58.851649 184.269744,58.8513083 Z M193.515477,54.3116982 C192.630857,54.3127133 191.408597,59.3916026 191.409595,60.5237787 C191.409595,60.7274756 191.466673,60.9597646 191.724271,60.9594266 C192.693925,60.9587495 193.800699,55.6184717 193.799701,54.718077 C193.799701,54.485788 193.715498,54.3116982 193.515477,54.3116982 Z M197.741552,58.1675598 C197.455997,58.1678982 197.143651,58.5167546 196.687363,59.3010894 C196.745605,60.3451209 196.917837,60.8095296 197.202393,60.8091915 C197.515405,60.8088529 197.971693,59.7918908 197.970696,58.777128 C197.970029,58.2831121 197.855707,58.1675598 197.741552,58.1675598 Z M195.00116,56.3999302 C194.14383,56.4009455 193.718993,58.7233277 193.719658,59.3330651 C193.719991,59.6792145 193.890226,59.970041 194.06096,59.970041 C194.375303,59.9697027 194.775012,59.6208462 195.517022,58.7791582 C195.573933,58.4020482 195.5736,58.0531917 195.573267,57.617375 C195.572602,57.0382598 195.343626,56.399592 195.00116,56.3999302 Z M232.421913,51.5094242 C232.858088,51.5090403 233.054389,51.7393458 233.213622,51.998502 L233.345759,52.2229939 C233.500367,52.4821598 233.675851,52.7125083 234.075019,52.712201 C234.785721,52.7114987 235.696779,52.0778024 236.238637,52.0771 C237.086171,52.0763976 238.312194,54.9066972 238.313521,56.2315071 C238.314847,57.767549 236.13,58.7032564 233.5388,58.7060684 C229.758565,58.7095775 227.477188,55.2188923 227.475197,52.9594286 C227.475197,52.7787488 227.561112,52.7185222 227.645865,52.65812 C228.006772,52.4019374 229.610288,52.8066673 231.682849,51.7194277 C231.938271,51.5708804 232.194521,51.5094242 232.421913,51.5094242 Z M182.680166,56.227374 C183.351839,56.2270341 183.901018,56.7521951 183.90173,57.393643 C183.90244,58.0342408 183.353973,58.5604218 182.682655,58.560762 C182.012583,58.5611019 181.463049,58.0362809 181.462337,57.3958531 C181.461626,56.7538952 182.010094,56.2280542 182.680166,56.227374 Z M173.653653,53.4662412 C173.622897,53.6415216 173.622897,53.7867101 173.623252,53.9623305 C173.624674,55.6240086 174.601604,56.8768125 176.370745,57.3715417 L176.335127,57.3960628 C176.159763,57.5134559 175.357505,58.0124296 174.389151,58.0133301 C173.080118,58.0141796 172.041319,57.0830346 172.039895,55.7712372 C172.03883,54.8671239 172.525962,53.9339388 173.653653,53.4662412 Z M245.434477,51.5094237 C246.565744,51.6498023 247.009309,52.4381577 247.010275,53.397466 C247.012043,55.4554748 244.390539,57.7971996 241.524254,57.7999962 C240.449116,57.8009803 239.702872,57.4643347 239.702228,56.6740068 C239.701907,56.3353887 239.977567,55.6879049 240.888499,55.6869186 C243.401605,55.6846174 245.712389,53.9627609 245.71078,52.4113642 C245.710459,51.9606405 245.628114,51.7633873 245.434477,51.5094237 Z M221.337618,51.5094259 C223.141019,51.5077089 223.847886,52.5088056 224.103327,52.5088056 C224.385283,52.5084618 224.667734,52.2127575 224.894847,52.2124136 C225.205295,52.2120698 225.205625,52.7137356 225.205955,53.0685808 C225.206942,54.2469282 224.700343,56.2824743 223.427916,57.0212193 C223.201297,56.5198973 222.749047,55.9594345 222.018793,55.60734 C221.821489,55.5194883 221.736343,55.3425815 221.736013,55.1656747 C221.735848,54.8405718 222.017805,54.4269296 222.352299,54.2493351 C222.125515,53.8664667 221.282281,53.6622244 220.887674,53.6625683 C219.641762,53.6639437 218.796058,54.5778763 218.626588,55.4043012 C218.513772,55.1089407 218.427967,54.7554709 218.427636,54.4013133 C218.426649,53.1045123 219.273177,51.5114912 221.337618,51.5094259 Z M177.248471,51.5094247 C179.322336,51.5077257 179.995609,53.6360812 179.996679,55.0347538 C179.997387,55.6773917 179.875782,56.258826 179.723953,56.7265259 C177.619687,56.7282237 175.209097,55.7979288 175.206963,53.4942929 C175.206074,52.4145592 176.060332,51.5104458 177.248471,51.5094247 Z M175.413021,37.1161327 C176.870953,37.1147666 180.651579,37.4921661 180.652273,38.3445686 C180.652967,39.3130676 177.467419,40.2855051 177.468113,41.2245519 C177.468599,41.7459592 178.44129,41.8821883 179.478796,41.9778599 L179.924764,42.0173835 C180.962269,42.1085002 181.934961,42.2082908 181.935447,42.6613757 C181.936488,43.6591558 178.694712,45.8944434 178.695059,46.5982148 C178.695406,46.7158525 178.844306,46.7740721 178.963183,46.7740721 C179.736141,46.7733871 181.759301,45.3035151 182.682201,45.3024877 C183.038311,45.3021453 183.157881,45.5372494 183.158229,45.9492383 C183.15927,46.7706474 182.655302,48.1514777 182.655996,49.0019966 C182.656343,49.207991 182.716215,49.4430952 182.953448,49.4427527 C183.608225,49.4420678 184.648613,46.6512973 185.570298,46.6502699 C185.944102,46.6499629 186.001534,47.4938283 186.028942,48.4250527 L186.040502,48.8582958 C186.067368,49.8708096 186.110506,50.8496047 186.527559,50.8494394 C187.270495,50.8487544 187.416097,47.0309229 188.190791,47.0304092 C188.933727,47.0297243 189.293308,49.1727168 190.068002,49.1716894 C190.393394,49.1716894 190.423417,48.7605568 190.42307,48.0855527 L190.42307,48.0855527 L190.422029,47.0870877 C190.421335,46.4405084 190.451011,46.0012934 190.778138,46.0009509 C191.672056,46.000266 194.202308,48.9329893 194.738728,48.9323044 C194.858126,48.9323044 194.887628,48.8146667 194.887628,48.7264812 C194.887107,47.9348668 193.187778,45.2641313 193.186389,43.8552186 C193.186042,43.3836404 193.364965,43.0608645 193.841339,43.060522 C194.882248,43.0594946 197.085892,44.2627554 198.096778,44.2620704 C198.424947,44.261728 198.633546,44.1437478 198.633198,43.8204582 C198.632157,42.6166837 194.998869,40.1819086 194.997827,39.1825874 C194.997133,38.2137459 199.044321,37.2120274 201.811285,37.2096302 C202.16913,37.2092877 202.883778,37.2086028 202.884125,37.5895982 C202.884497,37.9824884 201.89898,38.345893 200.856694,38.7309906 L200.438954,38.8863079 C199.675622,39.1736221 198.948383,39.4762719 198.623654,39.8144406 C198.515363,39.9271125 198.44612,40.0527982 198.451499,40.1789976 C198.505471,41.5589718 203.337766,44.7550529 203.339501,46.5175636 C203.339848,46.8995865 203.012373,47.1934239 202.475953,47.1937664 C200.868948,47.1951363 197.474454,45.6129348 196.312934,45.6139622 C195.985111,45.6143047 195.897472,45.7026614 195.89782,45.9963276 C195.898861,47.1120878 198.102679,50.632486 198.103893,52.1891736 C198.104241,52.6008199 197.956382,52.9242808 197.540921,52.9246233 C196.200825,52.9259931 193.221445,49.4043963 192.181231,49.4054237 C191.228134,49.4061087 191.647587,52.3713665 190.754363,52.3723939 C190.041276,52.3727363 189.413573,50.6701575 188.639225,50.6708424 C187.865919,50.6715273 187.364902,56.545707 186.145591,56.5470769 C184.716815,56.5481043 185.27649,51.1145095 184.324609,51.1153657 C183.580284,51.1157081 182.57044,52.966918 181.468617,52.9679454 C180.873887,52.9686304 180.695312,52.4989357 180.694617,51.8239316 C180.693923,50.9715292 180.960658,49.7978919 180.959964,49.0331612 C180.959443,48.6215148 180.929421,48.1528476 180.5419,48.1535325 C179.439384,48.1542175 175.425516,51.0646804 173.877689,51.0660503 C173.551776,51.0663928 173.312808,50.9193028 173.312634,50.5958419 C173.311246,49.1569633 178.395351,44.8360465 178.39483,43.8387802 C178.394504,43.4096881 177.102722,43.3659423 175.734972,43.3480403 L175.220879,43.3418363 C173.85313,43.324778 172.561348,43.2886257 172.561021,42.873877 C172.55998,41.8755833 176.695501,40.1396138 176.694807,39.492692 C176.694113,38.8180304 172.705929,38.5866934 172.705235,37.8223051 C172.704888,37.3226446 173.656075,37.1178488 175.413021,37.1161327 Z M230.545395,54.3420067 C230.431451,54.3420067 230.374395,54.4025847 230.374395,54.49231 C230.375059,55.2764851 231.742724,56.4792614 233.850116,56.4771572 C235.103173,56.4757497 236.041929,55.8719033 236.041598,55.5101924 C236.041266,55.3916707 235.870266,55.3008918 235.499905,55.301243 C235.130042,55.3019453 234.389984,55.272271 232.994454,55.0329448 C231.797789,54.8225907 230.887063,54.3416557 230.545395,54.3420067 Z M243.729534,51.5674488 C244.330229,51.5671203 244.523866,51.9616268 244.524188,52.355147 C244.525474,53.5973493 242.075413,54.6135323 240.915358,54.6145342 C240.529048,54.6148473 239.976602,54.6155048 239.672153,53.9969515 C239.422708,53.4891888 239.505374,52.6705878 239.036077,52.3051762 C239.505374,52.4448972 240.001691,52.4442397 240.388483,52.443911 C241.631688,52.4429247 242.818602,51.5681066 243.729534,51.5674488 Z M198.190144,47.6668856 C199.02419,47.6662008 202.806899,50.5996091 203.344013,51.3336889 C203.461502,51.5098886 203.5212,51.7453353 203.521548,51.9783846 C203.522241,52.860753 203.078146,53.8886702 202.482027,53.8893552 C201.767378,53.8896976 198.042286,48.8711739 198.041592,47.8437704 C198.041592,47.7555849 198.099902,47.6672282 198.190144,47.6668856 Z M245.063322,37.835795 C246.040338,37.8349479 246.270411,38.2696472 247.706736,38.2682899 C246.931181,38.7359056 246.645221,39.5805322 246.645556,39.9867267 C246.646894,41.2098913 247.423453,42.0523122 247.425796,44.5554815 C247.429979,49.1513837 243.185759,50.7854936 237.988952,50.7897473 C236.559821,50.7910928 235.036319,50.6762249 233.542267,50.4459802 C233.313198,50.4169663 233.255637,50.3589385 233.255637,50.21336 C233.254968,49.8344827 235.29467,49.6285011 235.293332,47.7672005 C235.292663,47.0394778 235.061418,46.3421264 235.061084,46.0804923 C235.061084,45.9342352 235.175702,45.8466845 235.291324,45.8463451 C235.721853,45.8460058 236.585757,47.5333927 238.187735,47.5316959 C238.615252,47.5313566 239.678608,47.3847601 239.67727,46.0462186 C239.675596,43.9802938 234.800055,43.4604191 234.799721,42.9956878 C234.799386,42.6174892 237.52161,41.9737541 238.927315,41.9437222 C236.77266,39.1527894 233.705911,39.4463217 233.705577,38.9520676 C233.705242,38.6598926 236.001455,38.0753729 238.121641,38.0735066 C239.900315,38.0718098 241.566044,38.4780043 241.567048,39.8457294 C241.568052,40.6031446 240.966014,41.3899132 240.967017,42.5531836 C240.967687,43.1938646 241.282427,43.7456376 242.116881,43.7449589 C243.007724,43.7441105 243.207511,42.784107 243.206507,41.764379 C243.205838,40.9217884 243.061268,40.2805984 243.060933,39.8733859 C243.059929,38.6515787 243.886017,37.8368143 245.063322,37.835795 Z M221.563484,37.1532503 C221.920715,37.1529128 222.636565,38.309263 223.105821,38.2800588 C223.880284,38.2793836 225.338516,37.3230735 227.332074,37.3210478 C231.523124,37.317334 234.562537,39.7758864 234.566355,43.9740284 C234.57034,48.3151527 231.179419,50.7801199 227.582829,50.7833287 C225.053424,50.7850154 223.532938,49.251712 222.968304,49.2523872 C222.586448,49.2527248 222.023896,50.5851441 221.666665,50.5854817 C221.516836,50.5854817 221.457182,50.5566152 221.398221,50.2085284 C221.3077,49.5440913 221.217005,48.4137379 220.739251,48.4140755 C220.322366,48.4144131 218.628466,50.2986731 218.064179,50.2990107 C217.945738,50.2993483 217.916431,50.2993483 217.916084,50.1538339 C217.915738,49.5756588 219.400155,47.5477413 219.399461,46.9403621 C219.398767,46.3329828 217.376596,46.6814071 217.376249,46.1900005 C217.375556,45.5814396 219.397553,44.9419864 219.39686,44.1323724 C219.396166,43.3212392 217.463129,43.2067858 217.462436,42.5707088 C217.462089,42.2231285 219.27547,41.7288521 219.27495,41.2073973 C219.274603,40.6876305 217.429314,38.6620764 217.428793,37.9952759 C217.428423,37.6098484 218.215204,37.9971126 219.058211,38.4423943 L219.375546,38.6106987 C220.009778,38.9471631 220.624244,39.2660119 220.910583,39.2657418 C221.267815,39.2654042 221.267121,38.253218 221.266774,37.9343354 C221.26608,37.4414095 221.414869,37.1532503 221.563484,37.1532503 Z M227.304154,38.6823308 C225.487998,38.6838529 224.32769,39.4078801 224.328384,40.0740053 C224.328731,40.4801627 224.685962,40.5373894 224.984406,40.5370518 C225.301729,40.5366917 225.856066,40.3797957 226.345012,40.2333866 L226.694735,40.1281559 C226.96808,40.0464517 227.186349,39.9851548 227.275715,39.9850423 C227.48329,39.9848735 227.602945,40.0421002 227.602945,40.187277 C227.603292,40.5063283 226.977964,41.2008137 226.978658,41.6066335 C226.979005,42.1566173 230.24767,41.7480965 230.248363,42.3284661 C230.24871,42.876593 227.84399,43.4007488 227.844336,43.7481603 C227.844683,44.1251136 229.780495,45.3680634 229.781188,46.0051533 C229.781188,46.1216324 229.722575,46.237605 229.514826,46.2379426 C228.889151,46.2386179 227.697629,45.9205794 226.894552,45.9212546 C226.71611,45.9212546 226.626802,46.0078543 226.626802,46.1241645 C226.627149,46.5571628 227.133689,47.4246787 227.134209,47.9468087 C227.134209,48.1206833 227.045075,48.1772347 226.926287,48.1772347 C226.449401,48.17791 225.020129,47.195772 224.365841,47.1962784 C224.126531,47.196616 223.948782,47.3699841 223.949129,47.6302895 C223.94965,48.1525884 225.319093,49.1639306 227.403347,49.1619079 C229.010367,49.1605544 232.010068,48.1166319 232.006257,43.9475252 C232.003305,40.6472849 230.244895,38.6796327 227.304154,38.6823308 Z M244.522525,43.1039385 C244.524867,45.6929618 242.666212,47.6728629 239.30497,48.228708 C239.679278,48.2570432 240.024304,48.2567039 240.368995,48.2563645 C244.297137,48.2528014 245.732458,46.448341 245.731121,44.9358858 C245.730116,44.0912592 245.269802,43.3355406 244.522525,43.1039385 Z M175.270542,44.5173792 C175.686003,44.5170377 176.162378,44.6033396 176.162378,44.8381013 C176.163072,45.4262899 173.903894,47.394795 173.100912,47.3954802 C172.803634,47.3958224 172.713739,47.0441079 172.713391,46.721332 C172.713045,46.1351983 172.979953,45.3112207 173.307428,45.0463218 C173.692519,44.6939224 174.585743,44.5180651 175.270542,44.5173792 Z M222.66275,40.8000582 C222.370896,40.8003958 222.31367,42.4218182 221.925744,42.4221558 C221.479032,42.4224934 220.913358,42.3070272 220.585087,42.3075337 C220.495085,42.3075337 220.436125,42.336569 220.436125,42.3946397 C220.436472,42.7417136 221.599554,43.3482488 221.599901,43.6669626 C221.599901,43.8695349 220.408552,44.6808369 220.408899,44.9124446 C220.408899,44.9701777 220.46786,44.9990442 220.617342,44.9987066 C220.826478,44.9987066 221.511634,45.0272355 221.869212,45.0268979 C222.018694,45.0265603 222.076961,45.1428706 222.076961,45.259012 L222.076961,45.259012 L222.138696,46.4158686 C222.139042,46.5608766 222.197483,46.6771869 222.28679,46.6771869 C222.554714,46.6768493 223.083277,45.4892692 223.411028,45.4889316 C223.678952,45.4889316 224.601857,45.8945826 224.8403,45.8940762 C224.89926,45.8940762 224.929434,45.8647032 224.929434,45.8066324 C224.929261,45.5459894 224.302892,44.7348562 224.302892,44.533972 C224.302892,44.273329 225.999567,44.300845 225.999567,44.010829 C225.99922,43.7790526 224.331505,43.4616893 224.331159,43.2012151 C224.331159,42.9687634 225.074581,42.1878472 225.074234,41.9851061 C225.074234,41.9265289 225.015274,41.8976624 224.955793,41.898 C224.657002,41.898 223.944274,42.3335304 223.557736,42.3338681 C223.228424,42.3342057 222.870499,40.8000582 222.66275,40.8000582 Z M184.846972,37.3118555 C186.811127,37.3101445 186.42673,38.9565586 187.974731,38.9551888 C189.462685,38.9539901 189.193347,37.3666517 191.12748,37.3649393 C192.347658,37.3639119 193.240188,37.5395979 193.240535,37.7164826 C193.240882,38.1272727 191.783644,38.1286426 191.784686,39.0399495 C191.785206,39.9498866 194.43312,40.7113638 194.433814,41.4154777 C194.434161,41.6209584 194.255586,41.6798629 194.076837,41.6798629 C193.572175,41.6805478 192.648928,41.2695864 191.96517,41.2702714 C191.488795,41.2709563 191.131645,41.5062317 191.131992,42.0062348 C191.132686,42.8278151 192.027298,44.0908365 192.027645,44.7065937 C192.027992,44.9124169 191.879961,45.0593356 191.700691,45.0593356 C190.985695,45.0600205 190.211001,42.799219 189.167836,42.8002465 C187.888827,42.8012739 188.278604,46.0619102 187.384686,46.062424 C186.52322,46.0631088 187.560832,42.7437393 185.983676,42.7451091 C185.030754,42.7461365 184.020562,44.2452895 183.424443,44.2459744 C183.27589,44.2459744 183.127338,44.18707 183.127338,44.0101853 C183.126644,43.4226818 184.733475,42.0997285 184.732781,41.3653062 C184.732434,40.9829408 184.345087,40.8962965 183.92789,40.8969814 C183.183913,40.8976664 182.142657,41.1915038 181.48736,41.1921887 C181.18904,41.1921887 180.952502,41.1040032 180.952502,40.8995499 C180.951808,40.2825941 183.957219,39.986017 183.956178,38.9589559 C183.955136,37.988402 182.557077,38.1370331 182.55673,37.7839487 C182.556383,37.5197348 183.656643,37.3132267 184.846972,37.3118555 Z M202.469358,40.0872055 C203.2444,40.0865313 203.630185,40.1158123 203.630882,40.9957834 C203.631573,41.7009247 203.483021,42.3776411 202.978185,42.3778127 C202.114637,42.3784973 200.238121,41.2337985 200.237426,40.7058844 C200.237079,40.3538274 201.488148,40.0882436 202.469358,40.0872055 Z M245.064326,38.8825018 C244.662577,38.8828414 244.347335,39.203691 244.347669,39.6119215 C244.348004,40.0177766 244.663748,40.3376081 245.065665,40.3369305 C245.468251,40.3365901 245.783995,40.0164193 245.78366,39.6105641 C245.783325,39.2023336 245.466912,38.8821627 245.064326,38.8825018 Z" id="logo" fill="#1F36C7"></path>
    </g>
</svg>